<?xml version="1.0" encoding="UTF-8"?>
<svg version="1.1" xmlns="http://www.w3.org/2000/svg" width="512" height="512">
<path d="M0 0 C1.61312609 1.51132688 3.21730651 3.03225739 4.8125 4.5625 C5.64523437 5.33207031 6.47796875 6.10164063 7.3359375 6.89453125 C29.16113502 27.67883474 41.29998106 57.86901885 42.09399414 87.74194336 C42.59149569 128.98756378 22.53819894 162.29133813 -5.40612733 191.0198499 C-8.52603533 194.19000653 -11.66871523 197.33695247 -14.81518555 200.48071289 C-16.22982267 201.90135381 -17.64405604 203.32239688 -19.05792236 204.74380493 C-22.85250192 208.55584595 -26.65334719 212.36157612 -30.45602393 216.16553807 C-32.83777157 218.54871722 -35.21808545 220.93331899 -37.59790993 223.3184185 C-45.9167755 231.65570597 -54.24070761 239.98789513 -62.56958008 248.31518555 C-70.3104198 256.05482026 -78.03999128 263.80558462 -85.76446122 271.56155401 C-92.42433767 278.24761125 -99.09193252 284.92590479 -105.76555091 291.59824556 C-109.73975209 295.57193842 -113.71083007 299.5486305 -117.67413902 303.53318977 C-121.39592673 307.27439464 -125.12726918 311.00580267 -128.86602783 314.73004532 C-130.23117157 316.09310548 -131.59294658 317.4595497 -132.95096779 318.82970619 C-143.65016434 329.61825793 -154.17903103 339.15341172 -170.1875 339.9375 C-187.46096631 339.09145267 -198.32010989 328.01537723 -209.76586914 316.4699707 C-211.21000884 315.02797991 -212.65501477 313.5868562 -214.10081482 312.14653015 C-218.0065839 308.25041361 -221.89980471 304.34197942 -225.79056096 300.43087792 C-229.87699229 296.32680207 -233.97404276 292.2333517 -238.06968689 288.13847351 C-244.94660939 281.25968081 -251.81576119 274.37320591 -258.67993164 267.48168945 C-266.59627153 259.53392695 -274.52298717 251.59663711 -282.45578676 243.66530544 C-290.92621893 235.19622861 -299.38900023 226.71953787 -307.84957957 218.24061942 C-310.27620567 215.80974749 -312.70423455 213.38028437 -315.13258553 210.95113564 C-318.96146933 207.12022949 -322.78516507 203.28421532 -326.60505104 199.44433784 C-328.00088093 198.04271027 -329.39835738 196.64272003 -330.79767227 195.24457169 C-359.87658095 166.18072208 -381.93080215 131.43243901 -382.27734375 89.03125 C-382.04427564 68.08001088 -376.49341823 48.75522895 -366.1875 30.5625 C-365.64480469 29.59183594 -365.10210937 28.62117188 -364.54296875 27.62109375 C-348.69915783 1.13764337 -322.12497045 -17.69262103 -292.44140625 -25.47265625 C-262.05135166 -32.7436392 -229.7026451 -27.72750364 -202.1875 -13.4375 C-201.59340332 -13.13473145 -200.99930664 -12.83196289 -200.38720703 -12.52001953 C-189.25955193 -6.78464695 -179.9269489 0.61397338 -171.1875 9.5625 C-167.99972174 8.22544609 -165.68381106 6.33769308 -163.12939453 4.03417969 C-117.35492315 -37.13288931 -46.94904698 -41.35295314 0 0 Z M-162.05859375 25.6796875 C-164.60560127 27.93227029 -166.51390853 29.42151574 -169.875 30.125 C-174.94922514 29.26333913 -177.57876735 26.07099008 -181.1875 22.5625 C-204.24582029 0.54815878 -235.29319543 -12.21767759 -267.26953125 -11.6875 C-289.78428705 -10.25086553 -311.19981251 -2.43333134 -328.1875 12.5625 C-329.02925781 13.27277344 -329.87101562 13.98304687 -330.73828125 14.71484375 C-350.67604715 31.92969777 -363.04450869 57.26047719 -365.09765625 83.55078125 C-365.12730469 84.21464844 -365.15695312 84.87851563 -365.1875 85.5625 C-365.22746094 86.29855469 -365.26742187 87.03460938 -365.30859375 87.79296875 C-366.26579777 122.30861943 -348.49242858 151.61506746 -325.77858758 175.88394809 C-320.62037979 181.32570985 -315.29815135 186.60880687 -309.9987793 191.91235352 C-308.60770752 193.30806624 -307.21682874 194.70397135 -305.8261261 196.10005188 C-302.08518402 199.85398059 -298.3410295 203.60468797 -294.59582496 207.35436368 C-292.2526514 209.70048501 -289.91005885 212.047185 -287.56763649 214.39405632 C-280.22725402 221.74806556 -272.88490846 229.10010624 -265.53964967 236.44924504 C-257.07828445 244.91510607 -248.62353059 253.38749832 -240.17436284 261.86553246 C-233.62397945 268.43751487 -227.06785956 275.00373816 -220.50733691 281.56559891 C-216.59575716 285.47822618 -212.6866412 289.3932414 -208.78348351 293.31427193 C-205.12019354 296.99401583 -201.4498408 300.66656377 -197.77392387 304.33369255 C-196.42731895 305.6795262 -195.0832739 307.02792683 -193.74200058 308.3790741 C-191.91015611 310.22361121 -190.06928458 312.05864728 -188.22587585 313.89161682 C-187.69834156 314.42720752 -187.17080727 314.96279822 -186.62728709 315.51461893 C-181.7461944 320.33135522 -177.22502924 322.98915751 -170.3125 323.0625 C-169.34570312 323.0934375 -168.37890625 323.124375 -167.3828125 323.15625 C-160.16103 321.81430509 -154.70045607 316.51803784 -149.68083191 311.43678284 C-149.07739199 310.83802288 -148.47395206 310.23926293 -147.85222608 309.62235874 C-145.85030213 307.63231361 -143.85917087 305.63182364 -141.86791992 303.63110352 C-140.42709753 302.19435023 -138.98563859 300.75823507 -137.54359436 299.32270813 C-133.63972732 295.43248738 -129.74537435 291.53287207 -125.85309005 287.63106656 C-121.7654733 283.53583058 -117.67051422 279.44794684 -113.57673645 275.35887146 C-106.69768758 268.48527725 -99.82497887 261.60539123 -92.95581055 254.72192383 C-85.04077994 246.79060632 -77.11505325 238.87010096 -69.18360823 230.95520073 C-62.35484232 224.14010455 -55.53201017 217.31910931 -48.71398813 210.49326462 C-44.65074479 206.4253698 -40.58556324 202.35946749 -36.51500511 198.29889107 C-32.68073974 194.47337177 -28.85403928 190.64043502 -25.03275108 186.80195427 C-23.63864806 185.40392517 -22.24206188 184.00836654 -20.84265518 182.61564636 C3.59994126 158.27897968 24.66582002 128.39912677 25.19311523 92.62084961 C25.1419925 64.20772161 16.56127738 42.08636718 -2.1875 20.5625 C-2.71601563 19.94890625 -3.24453125 19.3353125 -3.7890625 18.703125 C-22.03690583 -0.94839859 -48.80907944 -10.90658024 -75.05078125 -12.625 C-109.00628927 -13.4298713 -137.80981415 3.33811528 -162.05859375 25.6796875 Z " fill="#000000" transform="translate(426.1875,100.4375)"/>
</svg>
