<?xml version="1.0" standalone="no"?>
<!DOCTYPE svg PUBLIC "-//W3C//DTD SVG 20010904//EN"
 "http://www.w3.org/TR/2001/REC-SVG-20010904/DTD/svg10.dtd">
<svg version="1.0" xmlns="http://www.w3.org/2000/svg"
 width="487.000000pt" height="738.000000pt" viewBox="0 0 487.000000 738.000000"
 preserveAspectRatio="xMidYMid meet">
<metadata>
Created by potrace 1.16, written by Peter Selinger 2001-2019
</metadata>
<g transform="translate(0.000000,738.000000) scale(0.100000,-0.100000)"
fill="#000000" stroke="none">
<path d="M2380 7143 c-25 -2 -130 -12 -235 -23 -217 -22 -798 -76 -925 -85
-47 -4 -180 -20 -296 -36 -248 -34 -341 -64 -524 -170 -38 -22 -96 -82 -115
-119 -23 -44 -37 -345 -33 -690 1 -129 -1 -245 -5 -256 -7 -19 2 -17 75 21 46
24 94 46 108 49 14 3 2 -5 -27 -18 -66 -31 -153 -88 -153 -100 0 -6 5 -5 12 2
7 7 16 12 20 12 11 0 10 -34 -2 -46 -16 -16 -30 -74 -19 -74 6 0 24 7 42 15
32 15 32 15 7 -2 -89 -64 -118 -116 -125 -217 -2 -36 -3 -66 -2 -66 2 0 34 16
73 35 38 19 119 51 179 70 174 56 165 51 165 101 0 49 22 79 64 90 50 12 61 3
64 -55 l3 -54 67 7 c37 4 101 11 142 15 54 7 77 6 83 -2 5 -9 11 -7 20 5 20
26 412 67 852 88 264 13 770 13 1086 -1 140 -5 281 -11 314 -12 l60 -2 3 51
c2 43 -1 56 -24 83 -14 17 -40 39 -56 47 -16 9 -28 18 -25 20 12 13 545 -37
691 -65 92 -17 126 -60 126 -162 l0 -66 56 -12 55 -13 -3 -41 c-2 -23 -8 -41
-14 -40 -6 1 -45 5 -87 9 -66 6 -77 5 -77 -9 0 -8 6 -18 13 -20 9 -4 8 -8 -3
-16 -13 -9 -13 -11 3 -11 26 0 23 -55 -4 -74 -14 -10 -19 -21 -15 -32 5 -14 4
-15 -9 -4 -13 10 -15 9 -15 -9 0 -12 4 -19 10 -16 12 8 40 -18 40 -37 0 -10
-3 -9 -10 2 -9 13 -11 13 -20 0 -15 -23 -12 -33 8 -28 15 4 17 -4 17 -70 -1
-62 -4 -76 -20 -88 -12 -9 -21 -11 -23 -4 -7 19 -22 10 -22 -14 0 -30 19 -38
43 -18 15 14 17 13 17 -2 0 -10 -11 -19 -30 -22 -25 -5 -29 -10 -26 -34 2 -15
6 -32 10 -38 12 -20 -11 -21 -32 -1 -18 16 -22 17 -22 4 0 -9 -9 -15 -25 -15
-14 0 -25 -4 -25 -10 0 -10 27 -14 105 -15 38 0 40 -1 37 -30 -3 -28 -12 -39
-62 -75 l-21 -15 20 -22 c23 -24 27 -43 11 -43 -6 0 -10 -8 -8 -17 2 -13 -7
-20 -39 -27 -24 -5 -43 -13 -43 -17 0 -5 -13 -9 -30 -9 -37 0 -38 -12 -3 -35
22 -15 24 -20 12 -29 -8 -6 -14 -21 -13 -33 1 -24 -15 -30 -33 -12 -8 8 -13 8
-17 0 -4 -6 -12 -11 -17 -11 -6 0 -7 5 -4 11 4 6 -2 13 -14 16 -25 6 -28 23
-4 23 24 0 4 18 -44 40 l-38 18 40 -5 c22 -3 46 -10 53 -16 10 -8 16 -7 22 4
7 9 5 15 -5 17 -17 4 -15 42 2 42 7 0 22 -5 32 -12 24 -14 63 -2 41 13 -12 8
-10 9 9 7 13 -2 26 2 28 8 6 17 -25 26 -47 14 -10 -6 -28 -10 -39 -10 -12 0
-30 -6 -41 -12 -15 -10 -22 -10 -32 0 -6 6 -19 12 -28 12 -12 -1 -12 -2 3 -11
39 -23 -1 -39 -60 -23 -18 5 -21 11 -17 33 3 15 -1 34 -9 46 -13 17 -13 20 6
30 25 12 36 38 13 29 -18 -7 -22 11 -6 21 13 8 63 -23 55 -34 -4 -7 16 -21 31
-21 10 0 -13 38 -35 57 -14 13 -21 23 -16 24 40 3 56 7 62 14 5 4 -14 4 -42 0
-27 -4 -52 -10 -55 -15 -10 -15 -51 -22 -65 -10 -7 6 -22 10 -32 8 -14 -2 -17
3 -15 23 2 17 -3 29 -12 32 -23 9 -19 27 5 27 19 0 21 4 16 35 -3 19 -3 35 -1
35 18 0 44 -24 44 -40 0 -18 17 -37 25 -28 9 8 -20 68 -31 68 -19 0 -46 31
-40 46 3 7 1 16 -3 19 -5 3 -7 14 -4 25 3 11 0 20 -6 20 -6 0 -11 13 -11 29 0
17 -4 33 -10 36 -19 12 -10 31 21 42 25 10 28 15 20 30 -29 51 -41 96 -30 110
9 11 7 19 -11 38 l-23 25 21 0 c27 0 28 21 2 45 -27 25 -26 44 3 38 19 -4 20
-3 5 7 -10 6 -18 15 -18 20 0 5 8 11 18 14 9 2 1 3 -18 1 -19 -2 -40 1 -46 6
-7 6 -28 12 -46 14 -175 20 -282 26 -592 36 -737 25 -1732 -34 -2015 -118 -33
-9 -48 -18 -41 -23 17 -10 19 -92 2 -98 -14 -4 -16 -32 -2 -32 6 0 10 6 10 14
0 16 28 41 37 33 9 -10 -19 -70 -39 -85 -23 -17 -23 -43 1 -49 16 -4 17 -10
10 -44 -8 -33 -6 -43 11 -61 21 -23 17 -46 -6 -27 -11 9 -14 8 -14 -4 0 -8 4
-17 9 -19 13 -5 25 -88 13 -88 -6 0 -8 10 -5 21 4 16 2 20 -8 17 -8 -3 -14
-18 -14 -34 0 -16 -3 -34 -7 -40 -9 -14 2 -55 13 -48 5 3 7 9 4 14 -3 5 -1 11
4 14 17 11 21 -38 4 -56 -10 -11 -13 -26 -9 -43 4 -16 1 -34 -9 -48 -17 -25
-20 -47 -5 -47 6 0 10 6 10 13 0 18 27 53 34 46 4 -3 2 -19 -5 -35 -21 -57
-19 -101 4 -78 3 4 43 7 88 7 62 1 84 -2 91 -13 4 -8 51 -109 103 -224 52
-116 98 -213 102 -217 5 -4 76 -3 158 2 417 25 2031 20 2505 -8 l105 -6 34 84
c19 46 50 118 69 159 18 41 43 100 54 130 32 86 25 84 184 55 76 -14 149 -28
161 -31 25 -7 49 -31 40 -41 -4 -3 -64 2 -134 11 -70 9 -142 18 -160 21 -31 3
-32 2 -59 -68 -15 -40 -55 -142 -89 -227 l-63 -155 -108 -1 c-60 0 -215 5
-344 12 -401 22 -1261 28 -1805 14 -269 -8 -510 -14 -534 -14 l-44 -1 -102
228 c-56 125 -104 230 -107 232 -7 7 -160 -15 -178 -26 -8 -4 -10 -9 -4 -9 13
0 11 -56 -4 -93 -16 -38 -15 -48 3 -41 19 8 19 -10 0 -26 -18 -15 -20 -50 -2
-50 9 0 8 -3 -2 -9 -7 -5 -15 -27 -16 -49 -1 -23 -10 -48 -19 -57 -17 -18 -21
-35 -7 -35 5 0 11 9 14 20 10 37 27 21 27 -25 0 -34 -5 -48 -20 -57 -11 -7
-20 -19 -20 -26 0 -7 -7 -20 -15 -29 -14 -13 -18 -13 -40 1 -14 9 -25 21 -25
27 0 17 32 23 52 10 11 -7 17 -8 14 -2 -4 5 -20 17 -37 25 -27 13 -30 13 -25
1 3 -9 0 -15 -8 -15 -16 0 -12 150 5 182 9 16 7 20 -11 25 -19 5 -21 11 -17
40 4 23 1 43 -10 59 -14 22 -14 24 1 24 9 0 16 -6 16 -14 0 -15 18 -31 25 -24
2 2 -3 17 -11 33 -8 17 -14 39 -11 51 7 39 -17 47 -115 39 -83 -6 -90 -5 -86
11 2 12 20 22 58 31 127 32 132 34 122 46 -5 7 -12 24 -14 39 -4 24 -3 26 13
18 34 -19 41 -3 12 26 -15 14 -18 35 -18 106 0 48 3 88 8 88 12 0 8 35 -7 55
-9 13 -11 27 -5 42 6 16 4 25 -6 30 -11 7 -11 11 2 28 15 20 15 20 10 -3 -4
-15 -1 -22 6 -19 14 5 10 39 -5 48 -6 4 -3 11 8 17 13 7 15 13 7 24 -17 22
-22 104 -7 133 13 26 6 33 -13 14 -8 -8 -8 2 -1 37 6 29 19 56 31 66 12 10 17
18 11 18 -6 0 -14 -3 -17 -7 -4 -4 -26 -8 -50 -10 -60 -5 -223 -58 -285 -94
-29 -16 -65 -47 -81 -69 -16 -22 -32 -36 -36 -32 -4 4 -6 -2 -5 -13 1 -11 1
-54 0 -95 l-2 -75 -13 75 c-7 41 -9 77 -5 80 13 9 -5 35 -26 37 -15 2 -24 -5
-28 -20 -12 -38 -18 -637 -8 -637 6 0 13 6 15 13 3 7 6 5 6 -5 1 -10 6 -18 11
-18 6 0 10 8 11 18 0 9 2 28 4 42 3 14 7 81 11 150 6 95 9 118 16 95 5 -16 7
-56 4 -87 -3 -33 -1 -58 5 -58 5 0 9 -5 9 -11 0 -5 -4 -7 -10 -4 -13 8 -13
-41 0 -66 8 -13 7 -19 0 -19 -6 0 -10 -15 -9 -32 1 -18 -1 -40 -5 -48 -3 -8
-2 -22 4 -30 8 -12 12 -11 32 7 19 18 95 53 114 53 2 0 4 -9 4 -19 0 -11 -9
-21 -23 -25 -13 -3 -43 -20 -68 -38 -24 -18 -53 -34 -64 -35 -32 -6 -39 -19
-28 -55 6 -18 11 -25 12 -15 2 28 21 9 21 -20 l0 -26 23 20 c22 21 97 56 104
50 5 -5 4 -1089 -1 -1094 -2 -2 -34 -5 -70 -6 -36 -1 -66 -6 -66 -10 0 -13
-52 -57 -66 -57 -37 0 5 -86 49 -103 9 -3 17 -15 17 -25 0 -22 35 -39 90 -45
25 -3 20 -4 -18 -5 -45 -2 -53 -5 -50 -19 2 -14 15 -19 51 -21 l47 -3 0 -100
0 -99 -45 0 c-37 0 -45 -3 -45 -18 0 -14 12 -21 47 -30 l48 -10 -45 1 c-25 1
-46 -1 -47 -5 -2 -5 -3 -148 -3 -318 l0 -311 42 -19 c44 -20 30 -28 -17 -10
-43 16 -28 -21 18 -43 l37 -19 0 -100 c0 -87 -2 -99 -16 -94 -9 3 -27 9 -40
12 -40 10 -29 -23 16 -46 51 -26 51 -33 0 -15 l-40 14 0 -243 c0 -134 -3 -283
-6 -332 -6 -87 -6 -89 21 -116 140 -140 819 -256 1659 -283 93 -3 173 -8 177
-11 5 -3 6 2 3 10 -3 9 5 25 20 39 14 13 26 31 26 39 0 19 -37 58 -55 58 -8 0
-15 4 -15 9 0 4 -15 23 -33 42 -31 33 -31 34 -9 37 12 2 23 8 23 13 1 5 3 14
4 19 1 6 3 12 4 15 1 7 81 -33 81 -41 0 -2 -9 0 -19 6 -28 14 -38 12 -36 -8 2
-31 15 -42 49 -42 19 0 39 -6 45 -14 7 -8 24 -17 39 -21 25 -6 26 -7 8 -20
-10 -8 -15 -19 -11 -25 5 -9 1 -10 -14 -5 -15 5 -21 2 -21 -9 0 -9 -4 -16 -9
-16 -5 0 -8 -6 -7 -14 0 -8 -3 -15 -9 -16 -14 -2 -45 -31 -45 -42 0 -5 15 -8
33 -8 17 1 79 -4 137 -9 58 -6 135 -10 173 -9 59 1 67 4 62 19 -5 16 -3 16 25
6 20 -8 33 -8 38 -2 4 6 26 10 50 11 52 1 76 19 50 38 -28 21 -23 48 6 40 36
-9 64 3 78 34 7 15 21 28 31 30 13 3 17 -4 17 -29 l0 -32 24 22 c13 12 26 35
28 51 4 24 0 29 -21 34 -18 3 -31 -1 -43 -15 -10 -12 -35 -23 -56 -26 -33 -4
-42 -1 -55 17 -11 17 -19 20 -32 13 -25 -15 -63 -4 -85 24 -23 30 -16 52 9 29
10 -9 29 -16 43 -16 38 0 46 45 18 99 -22 45 -34 49 -61 25 -16 -14 -18 -13
-24 15 -8 38 -28 55 -56 46 -14 -5 -19 -3 -15 3 8 13 -36 62 -56 62 -23 0 -48
-33 -48 -63 0 -15 -4 -27 -10 -27 -26 0 -7 50 32 89 l42 40 -24 26 c-28 30
-41 31 -65 5 -14 -15 -16 -29 -11 -67 l7 -48 -21 24 c-18 21 -20 21 -20 5 0
-11 3 -36 7 -57 5 -31 9 -38 24 -34 12 3 19 0 19 -9 0 -7 14 -29 30 -47 33
-38 36 -47 17 -47 -18 0 -57 43 -57 63 0 9 -9 21 -20 27 -29 15 -26 -7 5 -50
13 -18 21 -38 17 -44 -4 -7 -8 -4 -10 7 -2 9 -10 17 -17 17 -17 0 -34 30 -28
48 6 16 -8 15 -31 -1 -16 -12 -16 -14 3 -31 12 -11 21 -23 21 -28 0 -13 -28
-9 -34 5 -3 6 -3 2 -1 -10 3 -12 1 -24 -5 -28 -6 -4 -15 -17 -20 -29 l-9 -21
0 22 c-1 12 4 23 10 25 18 6 0 48 -20 48 -9 0 -22 5 -29 12 -9 9 -12 8 -12 -4
0 -17 -26 -32 -41 -22 -5 3 -9 16 -9 28 0 14 -10 30 -25 40 -31 20 -58 21 -31
1 17 -13 17 -15 3 -21 -23 -8 -46 2 -54 23 -6 19 -51 63 -64 63 -4 0 -16 14
-26 30 -22 38 -31 38 -25 0 3 -21 13 -35 32 -45 15 -8 30 -23 33 -34 2 -11 24
-29 47 -41 30 -16 39 -24 30 -30 -7 -5 -19 -6 -25 -4 -7 3 -15 -4 -18 -15 -3
-12 -10 -21 -15 -21 -6 0 -8 9 -5 19 6 23 -22 41 -75 47 -39 5 -70 24 -39 24
25 0 21 27 -13 74 -17 23 -32 51 -34 63 -11 53 -53 95 -87 86 -14 -4 -19 0
-19 16 0 11 -5 21 -11 21 -5 0 -7 -6 -3 -12 5 -10 4 -10 -5 -2 -15 14 -11 56
6 61 6 2 16 -12 23 -32 6 -19 16 -32 22 -29 6 4 6 10 0 16 -6 6 -8 17 -5 25 3
8 0 19 -7 23 -11 7 -10 11 3 24 14 15 18 13 46 -21 23 -27 29 -31 24 -14 -3
12 -14 26 -24 32 -11 5 -19 18 -19 27 0 10 -6 24 -12 31 -10 11 -10 14 0 18 6
3 12 12 12 21 0 13 2 14 9 3 7 -10 12 -8 25 10 20 29 21 46 2 30 -10 -8 -16
-9 -21 -1 -3 5 -1 10 4 10 6 0 11 6 11 14 0 7 9 16 20 19 14 4 18 11 14 24 -5
15 -4 15 5 3 9 -13 14 -13 40 3 35 20 48 22 32 4 -8 -11 -4 -13 22 -9 18 3 25
7 17 10 -20 7 -40 28 -40 43 0 8 4 8 16 -2 12 -10 25 -10 62 -1 26 6 67 12 92
12 25 0 60 0 78 0 20 0 31 -4 27 -10 -3 -5 -15 -10 -26 -10 -10 0 -19 -4 -19
-8 0 -9 105 4 122 14 11 7 10 25 -1 21 -11 -3 -71 59 -71 73 0 5 -4 10 -10 10
-5 0 -10 -9 -10 -20 0 -11 -4 -20 -10 -20 -5 0 -9 -3 -9 -7 1 -5 1 -17 0 -28
-2 -18 -3 -19 -15 -3 -7 10 -21 15 -32 12 -11 -3 -33 6 -53 21 -24 17 -29 25
-18 25 9 0 17 -3 17 -7 0 -7 40 -9 78 -5 19 3 15 27 -13 77 -17 30 -21 45 -13
45 7 0 20 -13 29 -29 21 -37 77 -67 86 -46 10 26 22 5 17 -28 l-6 -32 17 23
c9 13 14 30 11 38 -5 12 -2 12 16 3 19 -10 19 -13 5 -20 -22 -13 -3 -71 21
-62 11 5 14 2 9 -10 -3 -9 -2 -17 3 -17 6 0 10 -7 10 -15 0 -9 -6 -12 -15 -9
-30 12 -14 -5 20 -22 38 -18 41 -24 24 -57 -7 -12 -12 -30 -13 -41 -1 -12 -11
-23 -26 -27 -24 -7 -24 -7 -2 -8 12 -1 22 -5 22 -10 0 -18 49 -18 66 0 10 11
21 19 25 19 4 0 21 14 37 30 17 17 41 30 55 30 29 0 62 33 54 55 -8 19 7 19
27 0 8 -8 17 -11 20 -6 3 5 -1 14 -9 21 -8 7 -12 16 -9 21 3 5 -2 9 -10 9 -9
0 -16 5 -16 10 0 16 -32 11 -46 -7 -8 -11 -13 -13 -14 -5 0 8 -18 12 -55 12
-30 0 -55 4 -55 8 0 4 -16 14 -36 21 -40 15 -36 25 18 39 25 7 39 7 47 -1 7
-7 12 -5 17 6 8 22 -3 50 -16 42 -5 -3 -10 -1 -10 4 0 6 -5 11 -11 11 -6 0 -8
-8 -4 -19 5 -16 2 -18 -15 -14 -18 5 -19 7 -7 22 29 32 29 88 1 79 -10 -3 -74
46 -74 57 0 3 9 1 20 -5 11 -6 20 -7 20 -2 0 17 -26 32 -48 27 -12 -2 -25 1
-28 7 -5 7 -2 8 6 3 10 -6 12 1 6 35 -7 42 -6 43 12 27 10 -9 22 -17 25 -17
12 0 47 -34 47 -45 0 -6 7 -20 15 -31 14 -18 15 -17 9 11 -4 17 -16 50 -28 74
-14 30 -17 46 -10 48 13 4 -5 53 -19 53 -5 0 -6 4 -2 9 7 12 -25 30 -42 24 -8
-3 -13 5 -13 21 0 25 0 25 35 10 19 -7 43 -14 53 -14 11 0 41 -11 67 -25 45
-24 49 -25 66 -9 17 15 20 15 51 -5 l33 -21 -30 6 c-24 4 -33 1 -43 -17 -13
-20 -12 -21 13 -17 21 5 35 -4 76 -43 52 -50 82 -61 93 -33 10 25 7 31 -16 39
-14 4 -18 8 -10 12 21 8 13 32 -12 39 -45 11 -73 84 -33 84 8 0 22 -9 33 -21
33 -36 53 -43 75 -23 28 26 23 0 -6 -27 -33 -32 -33 -53 0 -45 19 5 27 2 32
-11 4 -9 1 -19 -5 -21 -15 -5 -15 -21 1 -55 12 -27 20 -29 57 -13 25 11 51
-16 53 -56 1 -20 5 -34 8 -32 4 2 12 -3 19 -11 13 -16 4 -39 -12 -29 -6 4 -9
3 -6 -2 3 -5 2 -18 -2 -29 -5 -14 1 -25 21 -42 15 -13 33 -23 41 -23 7 0 21
-9 31 -21 11 -12 25 -18 36 -14 10 3 36 7 58 9 22 3 55 14 74 25 19 12 48 21
64 21 22 0 26 3 16 9 -9 6 -24 6 -38 0 -32 -12 -32 -12 -26 9 2 10 16 26 31
35 25 15 26 16 5 17 -12 0 -29 -8 -39 -17 -17 -17 -17 -16 -10 11 6 25 5 28
-14 23 -13 -3 -25 1 -33 12 -12 18 -49 22 -63 8 -16 -15 -24 -5 -24 27 0 19
-6 36 -12 39 -8 3 -3 12 15 26 15 13 27 30 28 39 0 14 2 13 9 -3 7 -17 9 -17
9 -2 1 12 9 17 31 17 20 0 33 6 36 17 15 46 17 49 21 31 4 -15 6 -15 25 4 15
15 17 22 8 28 -10 6 -7 14 9 31 11 12 21 29 21 36 0 7 5 13 10 13 6 0 10 6 10
13 0 6 10 23 21 37 20 25 20 24 -1 -20 -11 -25 -25 -53 -31 -63 -13 -24 -2
-39 22 -32 22 7 26 -14 9 -46 -15 -26 -29 -24 -22 4 5 22 5 22 -17 3 -13 -12
-17 -22 -11 -26 17 -10 52 -80 47 -93 -3 -7 -11 2 -18 18 -9 20 -20 29 -31 27
-28 -6 -30 -33 -4 -59 20 -20 31 -23 54 -18 38 8 87 -4 73 -18 -7 -7 -2 -14
16 -24 14 -7 31 -13 38 -13 17 0 36 24 38 48 1 13 7 18 19 14 14 -3 15 -8 8
-23 -6 -10 -15 -21 -20 -24 -6 -3 -10 -15 -10 -25 0 -15 14 -6 58 38 31 31 54
59 50 60 -16 7 -8 32 10 32 22 -1 52 -23 52 -39 0 -18 34 -9 38 10 3 17 -43
73 -68 81 -11 3 -7 12 18 37 17 18 32 37 32 42 0 5 5 9 10 9 6 0 3 -11 -6 -25
-9 -14 -14 -26 -10 -26 3 -1 11 -2 17 -3 16 -2 38 -47 39 -77 0 -15 -9 -38
-21 -53 -21 -27 -48 -33 -79 -16 -14 8 -27 1 -64 -33 -25 -24 -46 -51 -46 -60
0 -22 36 -40 71 -35 21 3 26 1 19 -8 -11 -12 -3 -44 10 -44 4 0 13 7 20 15 7
9 19 14 26 11 7 -3 16 4 19 15 4 10 14 19 23 19 22 0 82 56 82 76 0 28 26 9
47 -34 4 -9 47 27 64 56 12 17 25 32 30 32 14 0 22 -27 15 -47 -6 -15 -8 -15
-16 -3 -8 13 -10 13 -10 0 0 -9 -15 -22 -34 -28 -19 -7 -51 -24 -73 -38 -21
-14 -32 -20 -25 -13 6 7 12 17 12 21 0 21 -27 4 -49 -30 -14 -20 -34 -45 -45
-54 -12 -10 -16 -18 -8 -18 6 0 12 -7 12 -15 0 -18 -16 -20 -23 -2 -4 7 -8 3
-12 -10 -4 -13 -15 -23 -24 -23 -9 0 -24 -12 -34 -26 -15 -19 -16 -28 -7 -39
9 -11 7 -19 -9 -36 -22 -24 -30 -52 -9 -31 7 7 22 12 34 12 12 0 24 8 28 18 3
9 10 24 15 32 5 8 13 24 16 35 5 13 9 16 12 7 3 -7 -2 -31 -11 -53 -20 -50
-20 -52 5 -39 15 9 28 9 48 0 39 -16 81 -4 78 22 -3 33 20 32 25 -1 4 -25 -2
-36 -33 -63 -20 -18 -35 -37 -32 -44 2 -6 -6 -14 -19 -17 l-22 -6 22 -24 c28
-30 75 -190 74 -250 -1 -9 4 -17 11 -17 8 0 8 -3 -1 -12 -8 -8 -7 -18 6 -40
16 -28 16 -30 -2 -44 -17 -12 -18 -16 -6 -27 10 -10 11 -9 5 2 -5 9 -3 12 6 9
8 -3 16 -15 17 -29 5 -33 31 -59 59 -59 17 0 23 6 23 21 0 13 4 18 12 13 6 -4
17 1 23 10 11 14 13 15 19 1 3 -8 1 -15 -5 -15 -5 0 -9 -8 -7 -17 3 -17 -1
-19 -43 -22 -25 -1 -20 -26 18 -85 18 -28 22 -41 13 -46 -9 -5 -9 -9 -1 -14 6
-4 11 -3 11 2 0 6 9 8 21 5 11 -3 59 -1 107 5 48 6 113 14 145 17 l57 6 -2
-45 c-2 -25 -5 -46 -8 -46 -3 0 -42 -7 -87 -14 -512 -91 -1506 -127 -2303 -85
-176 9 -581 42 -670 55 -421 59 -671 111 -798 165 -24 11 -46 19 -48 19 -2 0
-4 -19 -4 -42 0 -61 43 -140 122 -224 38 -39 68 -74 68 -78 0 -3 -12 -3 -27 0
l-28 7 24 -26 c13 -14 43 -35 68 -47 24 -11 46 -27 49 -35 4 -8 10 -12 15 -9
5 2 19 -1 31 -8 13 -7 26 -11 31 -10 4 1 7 -2 7 -8 0 -5 8 -10 18 -10 10 0 28
-7 40 -16 12 -8 22 -12 22 -8 0 5 5 3 12 -4 7 -7 22 -12 34 -12 12 0 24 -6 27
-14 4 -9 14 -12 28 -9 14 4 25 0 31 -12 7 -11 13 -14 17 -7 7 12 83 -6 128
-30 13 -6 26 -9 29 -5 4 3 21 0 38 -7 17 -7 41 -11 54 -9 13 2 25 -3 28 -12 4
-10 11 -12 23 -6 10 6 37 5 66 0 110 -21 430 -63 543 -71 6 -1 12 -6 12 -12 0
-8 3 -7 8 0 5 8 36 9 107 4 176 -14 672 -20 930 -10 650 24 1175 107 1512 241
80 31 235 115 241 131 2 4 8 8 13 8 30 0 144 169 173 257 13 40 20 113 10 113
-1 0 -24 -9 -51 -21 -91 -40 -305 -97 -264 -70 8 5 10 14 6 21 -6 9 -4 11 4 6
8 -5 14 0 18 13 3 12 13 21 22 21 14 0 14 2 1 10 -15 10 -21 7 109 56 129 49
218 114 205 149 -5 11 -15 9 -51 -11 -25 -13 -52 -29 -60 -35 -7 -7 -31 -13
-53 -15 -37 -4 -40 -2 -40 21 0 19 5 25 23 25 25 0 141 53 151 69 10 16 1 14
-54 -14 -63 -32 -80 -32 -80 -1 0 21 11 30 65 56 56 27 95 63 83 76 -2 2 -38
-10 -79 -26 -40 -16 -82 -29 -91 -30 -26 0 -22 15 5 17 12 1 51 17 87 35 61
31 65 35 68 71 3 36 2 38 -18 27 -17 -9 -106 -39 -117 -40 -2 0 -3 11 -3 25 0
14 5 25 10 25 6 0 10 8 10 18 0 9 4 13 8 7 10 -14 32 -17 32 -5 0 6 6 10 14
10 7 0 25 9 40 21 23 18 26 28 26 79 l0 59 -32 -11 c-18 -6 -41 -18 -50 -26
-13 -10 -18 -11 -18 -3 0 7 -5 9 -11 6 -7 -5 -9 3 -7 21 2 19 9 28 23 29 32 3
65 16 65 26 0 5 7 9 15 9 16 0 21 25 6 34 -5 3 -28 -1 -51 -9 -57 -20 -67 -19
-73 7 -8 28 -5 31 30 30 42 0 103 35 103 58 0 21 -18 21 -78 -2 -13 -4 -28 -6
-33 -2 -5 3 -9 0 -9 -6 0 -7 -6 -10 -12 -8 -22 8 -15 43 8 44 12 1 36 9 54 18
18 9 39 16 47 16 15 0 40 47 30 57 -4 3 -18 1 -32 -5 -17 -8 -25 -8 -25 -1 0
6 -7 3 -16 -5 -8 -9 -22 -17 -30 -17 -47 -4 -49 -4 -49 20 0 21 5 24 40 26 48
2 74 12 98 36 25 26 22 42 -8 37 -16 -4 -25 0 -28 11 -3 11 -5 9 -6 -6 -1 -17
-9 -23 -41 -28 -52 -9 -55 -8 -55 11 0 15 38 32 107 48 26 6 56 42 44 53 -5 5
-64 -5 -133 -23 -18 -5 -23 -2 -23 14 0 28 16 36 29 15 9 -16 10 -15 11 6 0
13 3 22 6 19 3 -4 20 -2 37 3 22 6 33 5 39 -4 5 -9 8 -7 8 4 0 9 7 19 15 23
17 6 21 46 4 46 -23 0 -99 -23 -99 -30 0 -4 -11 -5 -25 -2 -25 4 -33 26 -17
47 10 15 105 16 114 2 5 -8 8 -4 8 9 0 12 7 24 15 28 8 3 15 15 15 27 0 18 -4
20 -27 14 -16 -4 -40 -8 -55 -8 -16 -1 -28 -5 -28 -9 0 -5 -11 -8 -25 -8 -20
0 -25 5 -25 24 0 13 7 26 15 30 8 3 15 1 15 -3 0 -12 55 -3 98 14 26 12 32 20
32 44 0 17 -1 31 -2 31 -2 0 -38 -7 -81 -15 -93 -18 -117 -19 -117 -4 0 5 3 8
8 6 9 -6 117 10 160 24 22 7 32 17 32 30 0 18 -5 20 -52 15 -29 -3 -65 -8 -80
-10 -24 -4 -28 -1 -28 20 0 17 6 24 19 24 11 0 22 -6 24 -12 3 -8 6 -6 6 5 1
12 9 17 31 17 16 0 41 5 55 12 22 10 25 17 25 66 l0 54 -75 -7 c-65 -6 -75 -5
-75 9 0 9 0 19 0 23 0 3 24 8 55 9 55 3 95 17 95 34 0 6 -11 10 -25 10 -20 0
-25 5 -25 25 0 16 4 23 13 19 7 -2 21 4 31 15 18 19 18 21 2 27 -10 4 -48 4
-86 0 -65 -6 -69 -5 -67 14 1 13 9 20 22 21 26 0 74 7 100 13 11 2 23 5 28 5
4 1 7 10 7 21 0 19 -5 20 -50 16 -45 -4 -50 -3 -50 15 0 11 6 19 13 18 11 -2
25 2 75 22 33 13 27 29 -13 29 -30 0 -35 3 -35 24 0 18 4 23 18 20 9 -3 26 1
36 9 34 25 9 37 -80 37 -78 0 -84 1 -84 20 0 19 6 21 63 20 77 0 125 5 134 13
11 11 -3 19 -41 22 -19 2 -41 7 -47 11 -7 4 -35 6 -62 5 -45 -2 -48 -1 -45 21
3 23 22 26 90 13 10 -2 18 1 18 6 0 6 6 7 16 1 17 -10 74 -4 74 8 0 14 -55 29
-105 29 -94 -1 -95 -1 -95 25 0 25 -14 24 151 12 47 -3 50 -2 45 18 -5 19 -4
20 8 3 13 -16 14 -15 19 10 6 33 -1 53 -16 47 -7 -2 -13 8 -14 27 -2 26 0 29
12 19 12 -10 15 -9 15 9 0 12 -4 19 -10 16 -5 -3 -19 -1 -31 6 -12 6 -42 14
-68 18 -41 5 -46 9 -49 34 -3 24 0 28 15 24 10 -3 39 -8 64 -12 l46 -6 2 55 2
54 -53 11 c-29 6 -70 13 -90 16 -31 5 -38 10 -38 29 l0 24 66 -14 c63 -13 114
-11 114 6 0 12 -88 40 -124 40 -38 0 -51 9 -60 38 -8 24 2 28 32 13 24 -12
124 -30 139 -24 8 3 13 24 13 57 0 51 0 51 -43 68 -38 16 -83 26 -129 27 -12
1 -18 9 -18 25 l0 24 68 -13 c37 -7 79 -16 95 -20 46 -12 32 18 -20 40 -25 11
-52 26 -59 33 -8 7 -14 10 -14 5 0 -5 -16 -7 -35 -5 -21 3 -35 10 -35 18 0 8
0 17 0 21 0 11 32 10 47 0 6 -5 28 -10 48 -13 21 -2 45 -9 55 -14 26 -14 40
-12 40 4 0 8 -22 25 -50 38 -27 13 -49 30 -50 38 0 12 -2 12 -9 2 -5 -9 -19
-11 -43 -7 -29 6 -35 11 -35 31 0 24 11 26 47 11 26 -11 114 -37 128 -37 6 0
12 5 12 11 0 5 -4 7 -10 4 -5 -3 -10 -1 -10 5 0 5 -16 18 -35 27 -21 10 -35
24 -35 35 0 21 7 22 40 3 61 -35 69 -2 9 37 -23 15 -54 30 -70 33 -18 4 -29
13 -29 23 0 13 -2 14 -9 3 -14 -22 -51 -4 -51 25 0 13 5 24 10 24 6 0 10 -4
10 -8 0 -4 28 -16 63 -26 34 -10 71 -25 82 -32 30 -21 35 -17 35 27 0 24 -4
38 -10 34 -5 -3 -23 4 -39 16 -16 12 -65 32 -108 45 -43 13 -69 23 -57 23 21
1 153 -41 176 -56 27 -16 34 -10 34 28 -1 22 -4 39 -8 39 -5 0 -8 13 -8 29 0
16 -6 34 -14 40 -18 15 -27 51 -13 51 17 0 33 -13 40 -30 3 -9 6 -4 6 13 1 15
-3 27 -9 27 -5 0 -10 5 -10 11 0 5 5 7 10 4 6 -4 11 11 11 37 l2 43 7 -40 c5
-26 8 16 10 120 l3 160 7 -115 c4 -63 9 -144 10 -180 5 -111 24 215 24 405 0
196 -11 280 -34 265 -12 -7 -16 -42 -21 -172 -5 -157 -5 -159 -7 -46 -1 67 -6
120 -12 123 -6 4 -8 21 -4 41 5 27 3 34 -10 34 -9 0 -16 4 -16 9 0 5 -11 22
-23 38 -26 31 -46 113 -23 94 19 -16 26 -3 26 49 0 79 -26 147 -76 196 -24 25
-35 40 -23 34 29 -16 32 -8 13 39 -9 23 -14 53 -11 66 4 23 -3 30 -57 59 -256
142 -910 252 -1696 286 -844 36 -1830 -46 -2290 -191 -36 -12 -84 -22 -108
-24 l-43 -3 1 66 c0 37 1 110 0 162 -1 241 19 583 40 660 20 74 78 120 207
164 135 46 183 43 213 -14 23 -42 54 -390 61 -685 1 -27 5 -54 9 -60 13 -18
20 -155 8 -155 -6 0 -9 -2 -7 -4 3 -3 79 6 169 19 447 64 720 80 1391 80 408
0 572 3 561 11 -9 6 -16 36 -19 77 -3 37 -10 70 -14 73 -5 3 -9 92 -9 197 -1
272 -16 597 -31 647 -10 33 -10 43 0 49 7 4 -25 11 -71 14 -82 7 -451 7 -538
0z m-30 -1234 l85 -2 -95 -8 c-245 -22 -493 -39 -685 -49 -115 -6 -239 -13
-275 -16 -44 -4 -60 -2 -50 4 25 17 158 40 295 53 149 13 553 28 605 23 19 -2
73 -4 120 -5z m90 -508 c0 -40 26 -64 60 -57 36 7 50 -10 50 -56 0 -35 -2 -38
-28 -38 -31 0 -70 35 -96 88 l-17 32 -127 0 -128 0 -29 30 -29 30 172 0 172 0
0 -29z m468 20 l104 -6 -22 -27 -21 -28 -132 0 -132 0 -24 -46 c-25 -46 -71
-80 -97 -70 -11 4 -14 18 -12 48 3 42 4 43 46 49 50 6 65 22 58 62 l-5 27 67
-1 c37 -1 114 -4 170 -8z m-508 -591 l0 -180 -30 0 -30 0 0 174 c0 158 2 175
18 179 43 11 42 15 42 -173z m220 139 c0 -26 -4 -29 -30 -29 l-30 0 0 -146 0
-145 -32 3 -33 3 0 140 0 140 -27 3 c-23 3 -28 8 -28 32 0 33 15 37 118 32 61
-4 62 -4 62 -33z m-312 4 c-2 -22 -9 -29 -30 -31 l-28 -3 0 -145 0 -144 -35 0
-35 0 0 145 0 145 -30 0 c-27 0 -30 3 -30 30 l0 30 96 0 95 0 -3 -27z m467
-15 c3 -24 15 -88 25 -143 35 -188 35 -177 -12 -168 -15 3 -28 13 -31 24 -7
25 -33 24 -47 -1 -10 -20 -70 -30 -70 -12 0 9 48 287 55 320 4 17 12 22 39 22
33 0 35 -2 41 -42z m145 0 c6 -24 17 -63 25 -88 l13 -45 1 82 c1 45 5 84 11
88 5 3 21 3 35 -1 l25 -6 0 -174 0 -174 -35 0 c-30 0 -35 4 -41 28 -3 15 -13
52 -22 82 l-17 55 -3 -83 -3 -83 -32 3 -32 3 -3 178 -2 177 34 0 c33 0 36 -3
46 -42z m-392 -374 c18 -21 22 -36 22 -98 0 -89 -19 -116 -80 -116 -61 0 -80
27 -80 116 0 89 5 103 44 120 38 16 64 10 94 -22z m-219 0 c37 -47 15 -78 -24
-34 -22 24 -60 26 -69 4 -3 -9 -6 -37 -6 -64 0 -27 3 -55 6 -64 9 -23 44 -20
71 6 29 27 48 14 30 -22 -19 -38 -61 -55 -98 -40 -41 17 -49 37 -49 124 0 92
17 116 79 116 31 0 44 -6 60 -26z m455 4 c22 -31 20 -78 -5 -104 l-20 -22 20
-41 c26 -49 26 -51 1 -51 -14 0 -27 15 -45 50 -14 28 -32 50 -40 50 -11 0 -15
-12 -15 -50 0 -43 -3 -50 -20 -50 -19 0 -20 7 -20 120 l0 120 64 0 c56 0 67
-3 80 -22z m236 3 c0 -17 -8 -20 -52 -23 -51 -3 -53 -4 -53 -33 0 -28 3 -30
43 -33 34 -3 42 -7 42 -23 0 -16 -7 -19 -46 -19 -44 0 -45 -1 -42 -27 3 -26 7
-28 56 -31 44 -3 52 -6 52 -23 0 -18 -6 -20 -72 -17 l-73 3 -3 123 -3 122 76
0 c68 0 75 -2 75 -19z m-487 -684 c20 -15 49 -49 64 -75 27 -45 28 -54 31
-194 l4 -148 -141 0 -141 0 0 60 0 60 -222 0 c-123 0 -232 3 -244 6 -16 4 -19
12 -16 33 4 27 6 28 79 35 42 3 163 6 268 6 215 0 213 1 222 -70 l6 -40 58 0
59 0 0 71 c0 94 -16 143 -57 179 l-34 30 -255 0 c-226 0 -255 2 -261 16 -4 11
2 23 18 35 29 22 85 26 340 25 l186 -1 36 -28z m-783 13 c12 -7 12 -12 0 -34
-11 -22 -20 -26 -57 -26 -59 0 -99 -22 -123 -70 -19 -36 -20 -58 -20 -315 0
-293 4 -319 49 -359 15 -13 41 -21 81 -24 54 -4 61 -7 74 -33 8 -15 11 -30 8
-33 -3 -3 -35 -6 -71 -6 -88 0 -142 27 -178 87 l-26 45 -15 -28 c-8 -16 -24
-40 -36 -52 -46 -52 -48 -52 -451 -52 l-375 0 0 429 c0 236 3 436 6 444 4 11
16 13 48 10 24 -3 53 0 65 6 16 9 21 9 21 0 0 -8 16 -10 53 -6 28 4 169 9 312
13 l260 6 35 -24 c19 -13 44 -40 55 -61 11 -20 23 -37 26 -37 4 0 12 13 19 29
14 34 43 64 85 85 33 17 131 21 155 6z m1445 4 c18 -5 94 -111 124 -174 6 -14
29 -53 49 -87 43 -73 211 -370 241 -427 l21 -40 114 235 c63 128 139 288 169
354 53 116 56 120 88 123 18 2 53 1 77 -3 41 -6 45 -10 67 -58 64 -147 295
-788 295 -821 0 -3 -40 -6 -88 -6 l-89 0 -34 85 -34 85 -147 0 -147 0 -40 -85
c-31 -65 -44 -85 -60 -86 -12 0 -46 0 -76 0 -30 0 -109 0 -175 0 l-120 1 -30
58 c-16 31 -39 76 -51 100 -20 41 -41 53 -54 32 -4 -6 -78 -10 -188 -10 l-182
0 -55 -90 -55 -90 -415 0 c-404 0 -416 1 -433 20 -36 43 -26 46 135 53 83 4
198 7 255 7 165 0 194 27 201 188 l4 92 -59 0 -60 0 -6 -40 c-9 -72 0 -70
-286 -70 -141 0 -261 4 -268 8 -6 4 -14 19 -18 33 -6 26 -6 26 71 32 42 4 153
7 246 7 l168 0 0 60 0 60 140 0 140 0 0 -97 0 -98 186 310 c102 171 193 318
202 328 12 13 31 17 86 17 39 0 80 -3 91 -6z m-2107 -1023 c29 -1 31 -3 23
-19 -6 -10 -8 -28 -5 -39 3 -11 1 -36 -4 -55 -8 -29 -6 -37 11 -51 12 -9 25
-17 29 -17 4 0 8 -11 8 -24 0 -15 -7 -26 -20 -29 -12 -3 -18 -11 -15 -20 8
-19 -77 -24 -305 -17 l-175 5 -17 35 c-14 26 -18 60 -18 136 0 55 2 103 4 105
3 3 281 -2 484 -10z m3360 -97 c3 -146 -3 -157 -88 -165 -172 -17 -948 -28
-970 -14 -6 4 -9 19 -5 34 4 18 1 32 -8 40 -12 9 -18 6 -31 -14 -17 -26 -17
-26 -149 -23 l-132 3 0 90 0 90 131 3 c124 2 132 1 157 -21 25 -21 38 -45 18
-33 -10 6 -22 -30 -13 -38 17 -17 28 -1 30 44 1 28 -2 50 -8 50 -5 0 -10 5
-10 10 0 6 7 10 15 10 9 0 12 6 9 15 -4 8 -2 16 2 16 12 2 1026 15 1039 14 6
-1 11 -47 13 -111z m-3218 -19 l0 -65 80 0 80 0 0 53 c0 60 10 80 36 75 17 -3
19 -13 19 -88 l0 -85 -119 -3 c-78 -2 -123 1 -132 9 -10 8 -14 35 -14 90 0 78
0 79 25 79 24 0 25 -2 25 -65z m535 35 l0 -25 -112 0 c-61 0 -114 -3 -119 -7
-4 -5 47 -8 114 -8 l122 0 0 -25 0 -25 -122 -2 -123 -2 120 -6 c120 -5 120 -5
120 -30 l0 -25 -120 -3 c-173 -4 -165 -8 -165 92 0 45 3 86 7 90 4 3 68 5 142
4 l136 -3 0 -25z m555 10 c13 -21 12 -74 -2 -88 -9 -9 -9 -18 0 -37 17 -38 15
-45 -14 -45 -19 0 -28 8 -40 35 l-14 35 -85 0 -84 0 -3 -32 c-2 -28 -7 -33
-28 -33 -24 0 -25 2 -28 84 -2 61 1 87 10 93 7 5 73 7 146 6 105 -2 135 -6
142 -18z m291 -71 c32 -43 59 -83 59 -88 0 -19 -46 -12 -65 9 -15 16 -31 20
-84 20 -55 0 -68 -3 -79 -20 -11 -19 -72 -30 -72 -14 0 14 123 169 139 175 27
10 39 0 102 -82z m404 61 l0 -25 -125 -5 -125 -6 120 -4 120 -5 9 -27 c6 -18
6 -38 0 -55 l-9 -28 -145 0 c-138 0 -145 1 -145 20 0 19 8 20 120 23 163 4
177 22 17 22 -122 0 -123 0 -132 26 -14 37 -12 52 10 74 19 19 31 20 153 18
l132 -3 0 -25z m394 -256 c2 -2 9 1 16 6 8 7 15 2 24 -17 11 -24 11 -25 -5
-12 -13 10 -12 6 3 -16 39 -54 34 -116 -11 -161 -27 -27 -42 -34 -74 -34 -43
0 -76 22 -86 56 -5 17 -1 23 20 28 29 8 52 -6 65 -41 5 -13 13 -23 17 -23 18
0 62 42 62 58 -1 42 -113 131 -148 117 -12 -5 -12 -1 4 16 25 28 53 39 84 32
14 -3 27 -7 29 -9z m-2169 -46 c14 -15 20 -35 20 -68 0 -58 -22 -90 -60 -90
-38 0 -60 32 -60 86 0 47 30 94 60 94 11 0 28 -10 40 -22z m-195 -933 c121 -9
245 -19 275 -23 l55 -7 3 -125 c4 -181 9 -173 -91 -165 -249 19 -619 59 -659
71 -16 5 -18 21 -18 143 0 76 2 140 5 142 2 3 51 0 107 -7 57 -7 202 -20 323
-29z m3244 -297 c1 -41 -15 -52 -22 -15 -4 19 -4 18 -6 -5 -2 -47 -21 -31 -23
20 l-2 47 -3 -46 c-3 -38 -8 -48 -26 -53 -36 -9 -65 -7 -70 7 -3 7 -6 5 -6 -5
-1 -13 -9 -18 -31 -18 l-31 0 3 57 c2 46 7 59 21 61 10 2 17 -3 17 -12 0 -9
-5 -16 -11 -16 -8 0 -7 -5 2 -16 10 -13 10 -17 -1 -24 -8 -5 -11 -12 -7 -16
11 -11 20 3 26 43 6 38 30 58 32 26 1 -16 2 -16 6 0 8 32 23 17 23 -23 0 -30
4 -40 16 -40 14 0 16 7 11 45 -7 44 -6 45 22 45 20 0 31 -6 34 -17 3 -13 5
-11 7 7 1 23 2 23 10 5 5 -11 9 -37 9 -57z m162 -41 c-1 -4 -1 -27 -1 -52 0
-57 -18 -59 -23 -2 l-4 42 -1 -47 c-1 -27 -5 -47 -9 -46 -5 1 -19 -2 -33 -5
-14 -4 -36 -9 -50 -11 -14 -3 -41 -10 -60 -15 -49 -15 -50 -15 -50 20 0 27 -2
30 -15 19 -8 -7 -15 -21 -15 -31 0 -11 -4 -19 -10 -19 -5 0 -10 12 -10 26 0
22 -2 25 -15 14 -8 -7 -15 -21 -15 -31 0 -11 -4 -19 -10 -19 -5 0 -10 5 -10
12 0 6 -6 3 -14 -7 -11 -16 -17 -17 -29 -7 -10 9 -17 10 -22 2 -12 -19 -45
-11 -45 11 0 18 2 19 15 9 8 -7 15 -8 15 -2 0 5 -7 15 -15 22 -8 7 -15 21 -15
32 0 21 32 38 38 19 3 -8 8 -6 18 6 12 16 13 13 14 -29 0 -27 5 -48 10 -48 6
0 10 20 10 44 0 49 6 53 78 52 23 -1 42 3 42 7 0 5 5 5 10 2 6 -3 10 -24 10
-46 0 -21 5 -39 10 -39 6 0 10 20 10 45 0 50 1 50 70 60 25 4 56 8 68 10 13 2
26 6 30 9 7 8 24 3 23 -7z m-3712 -23 c18 -4 22 -10 17 -27 -3 -12 -6 -39 -6
-61 l0 -39 -51 5 c-28 3 -55 12 -60 19 -7 11 -9 11 -9 1 0 -7 -4 -10 -10 -7
-5 3 -10 33 -10 66 l0 59 53 -5 c28 -3 63 -8 76 -11z m311 -92 c1 -37 3 -43
11 -29 5 9 7 22 4 27 -20 32 26 65 53 38 8 -8 15 -8 28 3 14 12 19 10 34 -9
16 -19 20 -20 30 -7 18 21 36 19 54 -7 13 -18 16 -19 16 -6 0 25 21 33 36 14
8 -11 14 -13 19 -7 3 6 13 11 21 11 11 0 14 -15 14 -65 l0 -66 -72 6 c-52 5
-77 11 -88 24 -14 17 -15 17 -30 -2 -15 -18 -17 -18 -33 -2 -12 12 -21 14 -30
7 -18 -15 -117 -3 -117 14 0 8 5 14 11 14 8 0 9 13 5 42 -5 28 -3 44 6 49 20
13 28 0 28 -49z m1287 -168 c-3 -4 0 -22 8 -41 19 -45 19 -54 0 -47 -8 4 -17
-1 -21 -10 -3 -9 -15 -16 -26 -16 -14 0 -18 -6 -16 -22 4 -30 -28 -37 -37 -9
-3 12 -13 21 -21 21 -8 0 -14 6 -15 13 0 10 -2 10 -6 0 -7 -18 -29 -16 -58 3
-31 20 -31 27 0 44 14 7 25 19 25 26 0 12 39 40 44 32 24 -42 35 -82 25 -94
-8 -10 -8 -14 0 -14 6 0 11 5 11 11 0 6 6 9 14 6 8 -3 17 1 20 9 3 9 11 12 18
8 10 -6 11 -4 1 7 -18 18 -16 39 3 39 10 0 14 6 11 14 -6 15 1 26 16 26 6 0 8
-3 4 -6z"/>
<path d="M955 3829 c-82 -4 -170 -10 -195 -13 -25 -3 -58 -7 -75 -8 l-30 -3
-3 -352 -2 -353 348 0 c342 0 349 0 371 21 40 37 51 80 51 196 0 82 -4 114
-15 131 -14 19 -14 24 0 51 11 22 15 61 15 141 0 113 -6 137 -43 178 -19 21
-28 22 -146 21 -69 -1 -193 -6 -276 -10z m343 -161 c19 -19 15 -96 -5 -106
-10 -5 -133 -12 -273 -16 -140 -4 -264 -8 -275 -9 -18 -2 -20 4 -20 63 l0 65
140 3 c77 1 158 4 180 5 110 9 242 6 253 -5z m2 -297 c14 -27 13 -86 -2 -99
-8 -6 -123 -11 -296 -14 l-282 -3 -5 30 c-2 17 -2 41 0 55 2 14 4 28 4 32 1
10 94 14 353 16 206 2 218 1 228 -17z"/>
<path d="M2990 3749 c-50 -90 -281 -483 -362 -617 l-20 -33 78 3 78 3 51 85
51 85 110 3 c131 4 392 -9 349 -17 l-30 -6 25 -18 c13 -9 31 -17 40 -17 8 0
32 -27 53 -60 l37 -60 65 0 c36 0 65 3 65 6 0 3 -30 63 -66 132 -37 70 -84
160 -105 201 -22 41 -39 81 -39 89 0 8 -6 20 -14 26 -8 6 -30 38 -48 71 -18
33 -55 100 -82 148 l-50 87 -62 0 -62 0 -62 -111z m195 -186 l63 -108 -47 -7
c-55 -8 -231 -10 -231 -3 0 11 143 236 147 231 3 -3 33 -53 68 -113z"/>
<path d="M3940 3703 c-29 -65 -107 -225 -172 -355 -65 -131 -118 -240 -118
-243 0 -3 26 -5 59 -5 l59 0 43 90 42 90 72 0 c40 0 119 -3 178 -6 l105 -7 32
-83 32 -84 39 0 c21 0 39 4 39 8 0 22 -186 511 -251 660 -22 51 -24 52 -64 52
l-41 0 -54 -117z m153 -155 c26 -62 47 -116 47 -120 0 -7 -201 1 -209 8 -2 2
9 29 24 61 15 32 38 82 51 111 13 28 27 52 32 52 4 0 29 -51 55 -112z"/>
<path d="M4219 6914 c39 -19 77 -45 84 -57 9 -17 11 -114 10 -407 -3 -426 -8
-530 -28 -546 -11 -8 7 -17 73 -38 114 -37 240 -99 291 -143 l41 -35 -1 239
c-1 401 -13 673 -32 715 -19 44 -96 130 -143 159 -19 12 -31 25 -27 32 4 6 0
8 -9 4 -9 -3 -24 1 -35 9 -10 9 -12 12 -4 8 9 -5 12 -3 7 5 -4 6 -11 9 -16 6
-5 -3 -20 0 -32 7 -13 7 -26 12 -30 13 -4 0 -16 7 -26 15 -10 8 -25 16 -32 18
-7 2 -38 10 -69 18 -91 23 -98 16 -22 -22z"/>
<path d="M2566 1884 c-3 -9 -6 -28 -6 -42 0 -21 -2 -24 -10 -12 -12 19 -12 19
-15 -70 -2 -71 -1 -76 21 -87 13 -6 42 -9 63 -6 30 4 47 0 69 -16 17 -11 42
-21 57 -21 18 0 38 -11 59 -33 17 -18 46 -44 63 -56 18 -12 36 -33 39 -47 8
-32 28 -26 32 10 2 15 9 26 15 23 18 -6 20 -53 3 -70 -12 -12 -13 -20 -3 -46
14 -38 20 -39 35 -5 7 14 17 22 22 19 20 -12 10 -44 -21 -68 -18 -14 -29 -29
-25 -36 12 -19 30 -12 50 22 38 63 43 74 50 112 7 34 6 36 -8 22 -17 -17 -55
-32 -62 -25 -2 3 5 22 16 44 10 21 21 47 24 57 6 21 20 22 39 3 12 -13 16 -12
26 10 19 42 14 57 -10 33 -27 -27 -47 -12 -29 21 10 18 9 31 -5 65 -9 24 -24
49 -33 56 -14 11 -15 11 -4 -1 17 -20 15 -121 -4 -148 -19 -27 -60 -31 -49 -4
18 39 16 80 -4 118 l-20 39 -1 -52 c0 -64 -13 -98 -40 -113 -28 -15 -38 -5
-17 18 10 10 17 28 17 40 0 26 -30 92 -42 92 -5 0 -16 -16 -24 -35 -8 -19 -16
-35 -19 -35 -2 0 -9 18 -15 40 -8 30 -18 44 -38 52 -15 5 -39 16 -53 24 -22
11 -28 11 -43 -4 -17 -16 -18 -16 -6 6 10 20 9 26 -7 38 -35 26 -65 14 -76
-31 -3 -13 -5 -10 -6 12 -1 23 7 38 30 57 17 14 36 26 42 26 7 0 6 4 -3 10
-24 15 -67 12 -74 -6z"/>
<path d="M2460 1616 c0 -3 9 -23 20 -43 19 -36 27 -112 13 -126 -3 -4 -12 1
-20 11 -13 15 -14 15 -9 -9 3 -14 0 -34 -7 -45 -7 -10 -12 -25 -11 -31 1 -7 2
-24 3 -38 0 -13 8 -30 17 -37 9 -7 28 -24 42 -38 46 -43 87 -58 129 -50 90 18
123 42 123 88 0 23 35 57 75 73 l30 11 -28 10 c-20 7 -37 7 -54 -1 -38 -17
-38 -8 1 33 34 36 34 37 13 45 -12 5 -28 6 -36 3 -10 -4 -13 0 -9 16 4 12 2
22 -3 22 -5 0 -18 9 -30 21 -19 19 -22 19 -44 5 -25 -16 -35 -12 -35 15 0 15
-27 39 -44 39 -2 0 -6 -12 -8 -27 -2 -23 -8 -28 -33 -29 -29 -1 -64 27 -65 52
0 12 -30 41 -30 30z"/>
<path d="M3185 1444 c-16 -17 -30 -24 -43 -20 -14 5 -30 -6 -61 -41 -68 -77
-74 -83 -87 -83 -24 0 -35 -134 -11 -143 7 -3 4 -6 -6 -6 -10 -1 -15 -5 -12
-11 3 -5 3 -10 -2 -10 -4 0 -8 -16 -9 -35 0 -20 -10 -48 -21 -63 l-20 -28 85
8 c47 4 89 5 95 1 5 -3 29 -7 54 -9 29 -1 53 -10 68 -24 30 -28 65 -19 65 16
0 20 -5 24 -30 24 -16 0 -30 4 -30 9 0 5 14 14 30 20 33 11 39 31 15 51 -20
17 -19 27 5 35 11 4 18 10 15 15 -3 5 -1 11 5 15 19 12 10 47 -21 77 -20 20
-27 33 -19 38 14 9 60 1 78 -13 18 -14 23 -5 16 29 -8 40 -34 71 -64 79 -25 6
-25 5 -22 -34 4 -42 -13 -58 -25 -23 -12 34 -35 52 -59 46 -29 -7 -31 7 -6 29
21 19 45 21 72 7 13 -7 19 -6 24 5 11 30 58 17 103 -30 44 -47 52 -46 31 2
-22 52 -38 63 -88 63 -30 0 -52 6 -60 15 -18 22 -38 18 -65 -11z"/>
<path d="M2122 1353 c-14 -21 -18 -41 -16 -81 3 -50 2 -52 -20 -48 -13 2 -33
10 -45 17 -18 12 -23 11 -38 -4 -13 -13 -14 -19 -5 -29 9 -9 12 -9 12 1 0 7 5
9 11 5 8 -4 7 -9 -2 -15 -11 -6 -11 -11 -2 -20 6 -6 9 -18 6 -27 -4 -10 -1
-13 8 -10 10 3 13 17 11 47 -4 41 -4 41 22 30 21 -10 24 -15 14 -32 -8 -16 -7
-23 4 -31 8 -6 15 -15 16 -21 2 -18 28 -16 52 5 12 11 29 20 37 20 12 0 13 10
8 47 -3 26 -11 53 -17 60 -7 9 -7 13 1 13 7 0 9 5 6 11 -5 6 -12 4 -20 -8 -7
-10 -16 -15 -20 -12 -7 8 4 59 14 57 39 -5 60 22 34 44 -14 11 -16 11 -11 -4
5 -12 0 -18 -19 -23 -31 -7 -40 0 -23 20 7 8 10 15 7 15 -3 0 -14 -12 -25 -27z"/>
<path d="M3423 1283 c-13 -8 -23 -21 -23 -29 0 -7 -8 -19 -18 -26 -10 -7 -19
-26 -20 -42 -1 -16 -7 -35 -13 -42 -5 -7 -9 -34 -7 -61 3 -47 4 -48 36 -48 24
0 40 -8 58 -28 26 -30 33 -24 9 7 -8 11 -15 23 -15 28 0 16 34 8 57 -14 30
-28 39 -17 19 23 -20 41 -21 39 14 39 41 0 38 21 -7 45 -53 29 -55 47 -4 44
23 -2 46 2 51 7 6 6 2 10 -12 11 -24 2 -68 23 -68 32 0 3 16 6 35 7 20 0 43 8
52 17 14 14 12 15 -23 10 -31 -4 -43 -1 -58 16 -22 25 -33 25 -63 4z"/>
<path d="M2995 944 c-8 -9 -15 -20 -15 -26 0 -6 -7 -7 -17 -3 -54 22 -79 22
-107 0 -21 -17 -26 -28 -21 -44 5 -17 3 -20 -10 -15 -11 5 -18 0 -21 -13 -3
-11 -21 -26 -40 -33 -19 -8 -34 -16 -34 -19 0 -13 185 1 201 15 20 18 60 18
84 0 29 -21 120 -10 151 19 l25 23 -27 21 c-34 27 -44 26 -44 -3 0 -38 -21
-48 -55 -26 -17 11 -42 20 -57 20 -16 0 -28 4 -28 8 0 16 35 40 68 47 31 6 32
8 15 19 -33 23 -52 25 -68 10z"/>
</g>
</svg>
